<svg width="38" height="46" viewBox="0 0 38 46" fill="none" xmlns="http://www.w3.org/2000/svg">
<path d="M17.6734 44.9516L0.79843 28.0766C0.446604 27.7247 0.24895 27.2476 0.24895 26.75C0.24895 26.2524 0.446605 25.7753 0.79843 25.4234C1.15026 25.0716 1.62744 24.874 2.125 24.874C2.62255 24.874 3.09973 25.0716 3.45156 25.4234L17.125 39.0992L17.125 2.375C17.125 1.87772 17.3225 1.4008 17.6742 1.04917C18.0258 0.697544 18.5027 0.499999 19 0.499999C19.4973 0.499999 19.9742 0.697544 20.3258 1.04917C20.6775 1.40081 20.875 1.87772 20.875 2.375L20.875 39.0992L34.5484 25.4234C34.9003 25.0716 35.3774 24.874 35.875 24.874C36.3726 24.874 36.8497 25.0716 37.2016 25.4234C37.5534 25.7753 37.751 26.2524 37.751 26.75C37.751 27.2476 37.5534 27.7247 37.2016 28.0766L20.3266 44.9516C20.1524 45.1259 19.9456 45.2642 19.718 45.3586C19.4904 45.4529 19.2464 45.5015 19 45.5015C18.7536 45.5015 18.5096 45.4529 18.282 45.3586C18.0544 45.2642 17.8476 45.1259 17.6734 44.9516Z" fill="white"/>
</svg>
