<svg width="96" height="50" viewBox="0 0 96 50" fill="none" xmlns="http://www.w3.org/2000/svg">
<path d="M85.0625 32.8125C83.6769 32.8138 82.3308 33.2747 81.2352 34.1229C80.1395 34.9712 79.3562 36.1589 79.0078 37.5H60.0625C58.4049 37.5 56.8152 36.8415 55.6431 35.6694C54.471 34.4973 53.8125 32.9076 53.8125 31.25C53.8125 29.5924 54.471 28.0027 55.6431 26.8306C56.8152 25.6585 58.4049 25 60.0625 25H78.8125C80.8845 25 82.8716 24.1769 84.3368 22.7118C85.8019 21.2466 86.625 19.2595 86.625 17.1875C86.625 15.1155 85.8019 13.1284 84.3368 11.6632C82.8716 10.1981 80.8845 9.375 78.8125 9.375H60.0625C59.6481 9.375 59.2507 9.53962 58.9576 9.83265C58.6646 10.1257 58.5 10.5231 58.5 10.9375C58.5 11.3519 58.6646 11.7493 58.9576 12.0424C59.2507 12.3354 59.6481 12.5 60.0625 12.5H78.8125C80.0557 12.5 81.248 12.9939 82.1271 13.8729C83.0061 14.752 83.5 15.9443 83.5 17.1875C83.5 18.4307 83.0061 19.623 82.1271 20.5021C81.248 21.3811 80.0557 21.875 78.8125 21.875H60.0625C57.5761 21.875 55.1915 22.8627 53.4334 24.6209C51.6752 26.379 50.6875 28.7636 50.6875 31.25C50.6875 33.7364 51.6752 36.121 53.4334 37.8791C55.1915 39.6373 57.5761 40.625 60.0625 40.625H79.0078C79.3 41.7567 79.9037 42.7838 80.7504 43.5896C81.597 44.3955 82.6526 44.9478 83.7974 45.1838C84.9421 45.4198 86.1301 45.33 87.2264 44.9248C88.3227 44.5195 89.2835 43.8149 89.9994 42.8911C90.7154 41.9672 91.158 40.8611 91.2769 39.6983C91.3958 38.5356 91.1863 37.3628 90.6721 36.3131C90.158 35.2634 89.3598 34.379 88.3682 33.7602C87.3766 33.1414 86.2313 32.8131 85.0625 32.8125ZM85.0625 42.1875C84.4444 42.1875 83.8402 42.0042 83.3263 41.6608C82.8124 41.3175 82.4119 40.8294 82.1754 40.2584C81.9389 39.6874 81.877 39.059 81.9975 38.4528C82.1181 37.8467 82.4158 37.2898 82.8528 36.8528C83.2898 36.4158 83.8467 36.1181 84.4528 35.9975C85.059 35.877 85.6874 35.9389 86.2584 36.1754C86.8294 36.4119 87.3175 36.8124 87.6608 37.3263C88.0042 37.8402 88.1875 38.4444 88.1875 39.0625C88.1875 39.8913 87.8583 40.6862 87.2722 41.2722C86.6862 41.8583 85.8913 42.1875 85.0625 42.1875Z" fill="#A42429"/>
<path d="M46.875 20.3125H44.7656L39.3398 8.10547C39.0943 7.55318 38.6939 7.08394 38.187 6.75462C37.6802 6.42529 37.0888 6.25001 36.4844 6.25H13.5156C12.9112 6.25001 12.3198 6.42529 11.813 6.75462C11.3061 7.08394 10.9057 7.55318 10.6602 8.10547L5.23437 20.3125H3.125C2.7106 20.3125 2.31317 20.4771 2.02015 20.7701C1.72712 21.0632 1.5625 21.4606 1.5625 21.875C1.5625 22.2894 1.72712 22.6868 2.02015 22.9799C2.31317 23.2729 2.7106 23.4375 3.125 23.4375H4.6875V39.0625C4.6875 39.8913 5.01674 40.6862 5.60279 41.2722C6.18884 41.8583 6.9837 42.1875 7.8125 42.1875H12.5C13.3288 42.1875 14.1237 41.8583 14.7097 41.2722C15.2958 40.6862 15.625 39.8913 15.625 39.0625V35.9375H34.375V39.0625C34.375 39.8913 34.7042 40.6862 35.2903 41.2722C35.8763 41.8583 36.6712 42.1875 37.5 42.1875H42.1875C43.0163 42.1875 43.8112 41.8583 44.3972 41.2722C44.9833 40.6862 45.3125 39.8913 45.3125 39.0625V23.4375H46.875C47.2894 23.4375 47.6868 23.2729 47.9799 22.9799C48.2729 22.6868 48.4375 22.2894 48.4375 21.875C48.4375 21.4606 48.2729 21.0632 47.9799 20.7701C47.6868 20.4771 47.2894 20.3125 46.875 20.3125ZM13.5156 9.375H36.4844L41.3457 20.3125H8.6543L13.5156 9.375ZM42.1875 39.0625H37.5V34.375C37.5 33.9606 37.3354 33.5632 37.0424 33.2701C36.7493 32.9771 36.3519 32.8125 35.9375 32.8125H14.0625C13.6481 32.8125 13.2507 32.9771 12.9576 33.2701C12.6646 33.5632 12.5 33.9606 12.5 34.375V39.0625H7.8125V23.4375H42.1875V39.0625Z" fill="#A42429"/>
</svg>
