<svg width="30" height="28" viewBox="0 0 30 28" fill="none" xmlns="http://www.w3.org/2000/svg">
<path d="M4.76603 19.1818H0.829102V14.2722H1.29051C4.77599 14.2722 8.26147 14.2722 11.7469 14.2822C12.1619 14.2822 12.3362 14.161 12.5287 13.7842C13.4449 11.9934 14.4042 10.2257 15.3718 8.46308C15.6699 7.90253 16.0176 7.36983 16.4108 6.87138C16.9951 6.15437 17.5727 6.08466 18.2482 6.70541C18.8291 7.23321 19.3071 7.87885 19.8233 8.47802C20.0391 8.72698 20.2316 8.99586 20.4656 9.29296C21.0117 8.82159 21.6938 8.53279 21.8183 7.68798C21.9046 7.10375 22.1503 6.54607 22.2847 5.96682C22.3029 5.82404 22.3677 5.69128 22.4692 5.58921C22.5707 5.48714 22.703 5.4215 22.8457 5.4025C23.0076 5.36 23.1658 5.3045 23.3187 5.23653C23.2507 5.12533 23.1843 5.02906 23.1295 4.92781C22.9635 4.63238 22.9951 4.35686 23.2772 4.15437C24.7157 3.11869 26.1591 2.08743 27.6075 1.06059C27.9279 0.833209 28.2017 0.894619 28.4374 1.19835C28.7483 1.61108 29.0487 2.031 29.3386 2.4581C29.3907 2.51977 29.4284 2.59219 29.4491 2.67018C29.4698 2.74816 29.473 2.82977 29.4584 2.90913C29.4438 2.98848 29.4118 3.06361 29.3647 3.12912C29.3176 3.19463 29.2565 3.24888 29.1859 3.28798C27.7508 4.31703 26.314 5.34054 24.8756 6.35852C24.5652 6.57761 24.2814 6.5245 24.0457 6.21744C23.9063 6.04317 23.7785 5.85893 23.664 5.70292C23.0432 5.73279 22.6681 6.00665 22.6183 6.62242C22.6115 6.66134 22.6015 6.69964 22.5884 6.73694C22.2747 7.89877 22.1038 9.13528 20.7212 9.62989C21.181 10.2523 21.5859 10.7917 21.9776 11.3378C22.3262 11.8208 22.6698 12.3087 22.9934 12.8083C23.4449 13.5037 23.4299 13.6266 22.8905 14.2722H24.4474V18.712H28.4308V23.6199H24.4623V27.9934H0.829102V23.127H4.76603V19.1818ZM20.0623 9.60997C19.6341 9.05728 19.2324 8.50956 18.8025 7.99338C18.4892 7.63805 18.1568 7.30007 17.8067 6.98093C17.754 6.92094 17.6885 6.8736 17.615 6.84243C17.5415 6.81126 17.4619 6.79706 17.3822 6.80089C17.3024 6.80472 17.2246 6.82647 17.1544 6.86454C17.0842 6.90261 17.0235 6.956 16.9768 7.02076C16.6511 7.38148 16.3578 7.77027 16.1005 8.18259C15.6374 8.96931 15.2225 9.78425 14.7959 10.5909C14.1469 11.8191 13.4814 13.039 12.8739 14.2855C12.7079 14.639 12.6681 15.0739 12.6382 15.4772C12.6117 15.8224 12.8291 16.015 13.1926 15.9867C13.5366 15.9742 13.8793 15.9382 14.2183 15.8789C16.7323 15.3112 19.2446 14.7342 21.7552 14.1477C22.0089 14.0729 22.2546 13.9734 22.4889 13.8506C22.8009 13.7096 22.8938 13.5071 22.6698 13.1967C22.3511 12.7585 22.0623 12.2971 21.7453 11.8573C21.3005 11.2398 20.8407 10.6324 20.381 10.01L17.9694 11.9336L17.6606 11.5403L20.0623 9.60997ZM23.9245 27.5021V23.6714H16.7013V27.5021H23.9245ZM1.30711 27.4921H8.48719V23.6531H1.30711V27.4921ZM16.127 27.5021V23.6631H9.02827V27.5021H16.127ZM27.9378 19.2614H20.6631V23.0888H27.9411L27.9378 19.2614ZM12.9005 23.0706H20.1071V19.2531H12.9038L12.9005 23.0706ZM5.31375 23.0706H12.3942C12.3942 21.9087 12.381 20.7751 12.3942 19.6398C12.3942 19.3079 12.2947 19.2183 11.9677 19.2199C9.88802 19.2349 7.80669 19.2199 5.72703 19.2282C5.58761 19.2282 5.44819 19.2432 5.30711 19.2515L5.31375 23.0706ZM1.30711 18.6374H8.48885V14.8199H1.30711V16.6706H3.43657V17.1768H1.30711V18.6374ZM23.9428 14.7718C22.7196 14.8299 21.5378 14.6623 20.3627 15.0257C19.2191 15.3776 18.0391 15.6183 16.8955 15.9037V18.6374H23.9428V14.7718ZM9.02661 14.8033C9.01831 14.9361 9.00504 15.0523 9.00504 15.1668C9.00504 16.1992 9.01665 17.2316 8.99508 18.2623C8.99508 18.6042 9.10628 18.6789 9.42495 18.6772C11.5959 18.6656 13.7652 18.6772 15.9362 18.6772H16.3461V16.0216C16.2532 16.0382 16.1901 16.0515 16.1254 16.0614C15.1196 16.2042 14.1171 16.3818 13.1063 16.478C12.527 16.5345 12.2515 16.2739 12.1519 15.6963C12.1235 15.4017 12.1201 15.1052 12.142 14.81L9.02661 14.8033ZM27.966 1.4108L23.5046 4.59918C23.8548 5.08715 24.1685 5.53528 24.5005 6.00333L28.9602 2.81661L27.966 1.4108Z" fill="black"/>
</svg>
