<svg width="20" height="20" viewBox="0 0 20 20" fill="none" xmlns="http://www.w3.org/2000/svg">
<path d="M10 0.4375C8.10872 0.4375 6.25991 0.998331 4.68736 2.04907C3.11482 3.09981 1.88917 4.59327 1.16541 6.34059C0.441643 8.08791 0.252274 10.0106 0.621245 11.8656C0.990216 13.7205 1.90096 15.4244 3.2383 16.7617C4.57564 18.099 6.27951 19.0098 8.13445 19.3788C9.9894 19.7477 11.9121 19.5584 13.6594 18.8346C15.4067 18.1108 16.9002 16.8852 17.9509 15.3126C19.0017 13.7401 19.5625 11.8913 19.5625 10C19.5595 7.46478 18.5511 5.03425 16.7584 3.24158C14.9658 1.44891 12.5352 0.440477 10 0.4375ZM10 18.4375C8.33122 18.4375 6.69992 17.9426 5.31238 17.0155C3.92484 16.0884 2.84338 14.7706 2.20477 13.2289C1.56616 11.6871 1.39907 9.99064 1.72463 8.35393C2.05019 6.71721 2.85379 5.21379 4.03379 4.03379C5.2138 2.85378 6.71722 2.05019 8.35393 1.72462C9.99064 1.39906 11.6871 1.56615 13.2289 2.20477C14.7706 2.84338 16.0884 3.92484 17.0155 5.31238C17.9427 6.69992 18.4375 8.33122 18.4375 10C18.435 12.237 17.5453 14.3817 15.9635 15.9635C14.3817 17.5453 12.237 18.435 10 18.4375ZM6.8125 10C6.8125 10.669 7.023 11.321 7.41417 11.8638C7.80534 12.4065 8.35736 12.8124 8.99203 13.0239C9.6267 13.2355 10.3118 13.242 10.9504 13.0425C11.589 12.843 12.1486 12.4477 12.55 11.9125C12.6396 11.7932 12.773 11.7143 12.9208 11.6933C13.0686 11.6723 13.2186 11.7108 13.338 11.8005C13.4573 11.8901 13.5362 12.0235 13.5572 12.1713C13.5782 12.319 13.5396 12.4691 13.45 12.5884C12.9068 13.3123 12.1496 13.8469 11.2857 14.1166C10.4218 14.3863 9.49496 14.3773 8.63642 14.091C7.77788 13.8047 7.03118 13.2556 6.50205 12.5213C5.97293 11.7871 5.68821 10.905 5.68821 10C5.68821 9.09498 5.97293 8.2129 6.50205 7.47867C7.03118 6.74445 7.77788 6.1953 8.63642 5.90899C9.49496 5.62268 10.4218 5.61373 11.2857 5.8834C12.1496 6.15307 12.9068 6.6877 13.45 7.41156C13.5396 7.53091 13.5782 7.68098 13.5572 7.82875C13.5362 7.97652 13.4573 8.1099 13.338 8.19953C13.2186 8.28917 13.0686 8.32772 12.9208 8.30671C12.773 8.2857 12.6396 8.20685 12.55 8.0875C12.1486 7.5523 11.589 7.15696 10.9504 6.95749C10.3118 6.75801 9.6267 6.76452 8.99203 6.97607C8.35736 7.18763 7.80534 7.59351 7.41417 8.13624C7.023 8.67896 6.8125 9.331 6.8125 10Z" fill="#343330"/>
</svg>
