<svg width="20" height="20" viewBox="0 0 20 20" fill="none" xmlns="http://www.w3.org/2000/svg">
<path d="M10 0.4375C8.10872 0.4375 6.25991 0.998331 4.68736 2.04907C3.11482 3.09981 1.88917 4.59327 1.16541 6.34059C0.441643 8.08791 0.252274 10.0106 0.621245 11.8656C0.990216 13.7205 1.90096 15.4244 3.2383 16.7617C4.57564 18.099 6.27951 19.0098 8.13445 19.3788C9.9894 19.7477 11.9121 19.5584 13.6594 18.8346C15.4067 18.1108 16.9002 16.8852 17.9509 15.3126C19.0017 13.7401 19.5625 11.8913 19.5625 10C19.5595 7.46478 18.5511 5.03425 16.7584 3.24158C14.9658 1.44891 12.5352 0.440477 10 0.4375ZM10.5625 18.4188V12.0625H13C13.1492 12.0625 13.2923 12.0032 13.3978 11.8977C13.5032 11.7923 13.5625 11.6492 13.5625 11.5C13.5625 11.3508 13.5032 11.2077 13.3978 11.1023C13.2923 10.9968 13.1492 10.9375 13 10.9375H10.5625V8.5C10.5625 8.05245 10.7403 7.62323 11.0568 7.30676C11.3732 6.99029 11.8025 6.8125 12.25 6.8125H13.75C13.8992 6.8125 14.0423 6.75324 14.1478 6.64775C14.2532 6.54226 14.3125 6.39918 14.3125 6.25C14.3125 6.10082 14.2532 5.95774 14.1478 5.85225C14.0423 5.74676 13.8992 5.6875 13.75 5.6875H12.25C11.5041 5.6875 10.7887 5.98382 10.2613 6.51126C9.73382 7.03871 9.4375 7.75408 9.4375 8.5V10.9375H7C6.85082 10.9375 6.70775 10.9968 6.60226 11.1023C6.49677 11.2077 6.4375 11.3508 6.4375 11.5C6.4375 11.6492 6.49677 11.7923 6.60226 11.8977C6.70775 12.0032 6.85082 12.0625 7 12.0625H9.4375V18.4188C7.25334 18.2728 5.21138 17.2837 3.74285 15.6604C2.27432 14.037 1.49419 11.9064 1.5672 9.71861C1.64021 7.53079 2.56064 5.45698 4.13413 3.93513C5.70761 2.41328 7.81097 1.56252 10 1.56252C12.189 1.56252 14.2924 2.41328 15.8659 3.93513C17.4394 5.45698 18.3598 7.53079 18.4328 9.71861C18.5058 11.9064 17.7257 14.037 16.2572 15.6604C14.7886 17.2837 12.7467 18.2728 10.5625 18.4188Z" fill="#343330"/>
</svg>
