<svg width="20" height="20" viewBox="0 0 20 20" fill="none" xmlns="http://www.w3.org/2000/svg">
<path d="M10 5.6875C9.14707 5.6875 8.31329 5.94042 7.6041 6.41429C6.89492 6.88815 6.34217 7.56167 6.01577 8.34968C5.68937 9.13768 5.60397 10.0048 5.77036 10.8413C5.93676 11.6779 6.34749 12.4463 6.9506 13.0494C7.55372 13.6525 8.32213 14.0632 9.15867 14.2296C9.99522 14.396 10.8623 14.3106 11.6503 13.9842C12.4383 13.6578 13.1118 13.1051 13.5857 12.3959C14.0596 11.6867 14.3125 10.8529 14.3125 10C14.311 8.85671 13.8562 7.76067 13.0478 6.95225C12.2393 6.14382 11.1433 5.68899 10 5.6875ZM10 13.1875C9.36957 13.1875 8.7533 13.0006 8.22912 12.6503C7.70494 12.3001 7.29639 11.8022 7.05513 11.2198C6.81388 10.6374 6.75076 9.99646 6.87375 9.37815C6.99674 8.75984 7.30032 8.19188 7.7461 7.7461C8.19188 7.30032 8.75984 6.99674 9.37815 6.87375C9.99646 6.75076 10.6374 6.81388 11.2198 7.05513C11.8022 7.29639 12.3001 7.70494 12.6503 8.22912C13.0006 8.7533 13.1875 9.36957 13.1875 10C13.1875 10.8454 12.8517 11.6561 12.2539 12.2539C11.6561 12.8517 10.8454 13.1875 10 13.1875ZM14.5 0.4375H5.5C4.1578 0.438989 2.871 0.972836 1.92192 1.92192C0.972836 2.871 0.438989 4.1578 0.4375 5.5V14.5C0.438989 15.8422 0.972836 17.129 1.92192 18.0781C2.871 19.0272 4.1578 19.561 5.5 19.5625H14.5C15.8422 19.561 17.129 19.0272 18.0781 18.0781C19.0272 17.129 19.561 15.8422 19.5625 14.5V5.5C19.561 4.1578 19.0272 2.871 18.0781 1.92192C17.129 0.972836 15.8422 0.438989 14.5 0.4375ZM18.4375 14.5C18.4375 15.5443 18.0227 16.5458 17.2842 17.2842C16.5458 18.0227 15.5443 18.4375 14.5 18.4375H5.5C4.45571 18.4375 3.45419 18.0227 2.71577 17.2842C1.97734 16.5458 1.5625 15.5443 1.5625 14.5V5.5C1.5625 4.45571 1.97734 3.45419 2.71577 2.71577C3.45419 1.97734 4.45571 1.5625 5.5 1.5625H14.5C15.5443 1.5625 16.5458 1.97734 17.2842 2.71577C18.0227 3.45419 18.4375 4.45571 18.4375 5.5V14.5ZM15.8125 5.125C15.8125 5.31042 15.7575 5.49168 15.6545 5.64585C15.5515 5.80002 15.4051 5.92018 15.2338 5.99114C15.0625 6.06209 14.874 6.08066 14.6921 6.04449C14.5102 6.00831 14.3432 5.91902 14.2121 5.78791C14.081 5.6568 13.9917 5.48975 13.9555 5.3079C13.9193 5.12604 13.9379 4.93754 14.0089 4.76623C14.0798 4.59493 14.2 4.44851 14.3542 4.3455C14.5083 4.24248 14.6896 4.1875 14.875 4.1875C15.1236 4.1875 15.3621 4.28627 15.5379 4.46209C15.7137 4.6379 15.8125 4.87636 15.8125 5.125Z" fill="#343330"/>
</svg>
