<svg width="35" height="35" viewBox="0 0 35 35" fill="none" xmlns="http://www.w3.org/2000/svg">
<path d="M27.3438 22.9688C26.3738 22.9697 25.4316 23.2923 24.6646 23.886C23.8977 24.4798 23.3493 25.3112 23.1055 26.25H9.84375C8.68343 26.25 7.57063 25.7891 6.75016 24.9686C5.92969 24.1481 5.46875 23.0353 5.46875 21.875C5.46875 20.7147 5.92969 19.6019 6.75016 18.7814C7.57063 17.9609 8.68343 17.5 9.84375 17.5H22.9688C24.4192 17.5 25.8102 16.9238 26.8357 15.8982C27.8613 14.8727 28.4375 13.4817 28.4375 12.0312C28.4375 10.5808 27.8613 9.18985 26.8357 8.16426C25.8102 7.13867 24.4192 6.5625 22.9688 6.5625H9.84375C9.55367 6.5625 9.27547 6.67773 9.07035 6.88285C8.86523 7.08797 8.75 7.36617 8.75 7.65625C8.75 7.94633 8.86523 8.22453 9.07035 8.42965C9.27547 8.63477 9.55367 8.75 9.84375 8.75H22.9688C23.839 8.75 24.6736 9.0957 25.2889 9.71106C25.9043 10.3264 26.25 11.161 26.25 12.0312C26.25 12.9015 25.9043 13.7361 25.2889 14.3514C24.6736 14.9668 23.839 15.3125 22.9688 15.3125H9.84375C8.10327 15.3125 6.43407 16.0039 5.20336 17.2346C3.97265 18.4653 3.28125 20.1345 3.28125 21.875C3.28125 23.6155 3.97265 25.2847 5.20336 26.5154C6.43407 27.7461 8.10327 28.4375 9.84375 28.4375H23.1055C23.31 29.2297 23.7326 29.9487 24.3252 30.5128C24.9179 31.0768 25.6568 31.4634 26.4582 31.6286C27.2595 31.7938 28.0911 31.731 28.8585 31.4473C29.6259 31.1637 30.2984 30.6705 30.7996 30.0238C31.3008 29.3771 31.6106 28.6028 31.6938 27.7888C31.7771 26.9749 31.6304 26.1539 31.2705 25.4192C30.9106 24.6844 30.3518 24.0653 29.6577 23.6321C28.9636 23.199 28.1619 22.9692 27.3438 22.9688ZM27.3438 29.5312C26.9111 29.5312 26.4882 29.403 26.1284 29.1626C25.7687 28.9222 25.4883 28.5806 25.3228 28.1809C25.1572 27.7812 25.1139 27.3413 25.1983 26.917C25.2827 26.4927 25.491 26.1029 25.797 25.797C26.1029 25.491 26.4927 25.2827 26.917 25.1983C27.3413 25.1139 27.7812 25.1572 28.1809 25.3228C28.5806 25.4883 28.9222 25.7687 29.1626 26.1284C29.403 26.4882 29.5312 26.9111 29.5312 27.3438C29.5312 27.9239 29.3008 28.4803 28.8905 28.8905C28.4803 29.3008 27.9239 29.5312 27.3438 29.5312Z" fill="#A42429"/>
</svg>
