<svg width="35" height="35" viewBox="0 0 35 35" fill="none" xmlns="http://www.w3.org/2000/svg">
<path d="M15.3125 10.9375C15.3125 10.5049 15.4408 10.0819 15.6812 9.72219C15.9215 9.36246 16.2632 9.08208 16.6629 8.91651C17.0626 8.75095 17.5024 8.70763 17.9268 8.79203C18.3511 8.87644 18.7409 9.08478 19.0468 9.3907C19.3527 9.69663 19.5611 10.0864 19.6455 10.5107C19.7299 10.9351 19.6866 11.3749 19.521 11.7746C19.3554 12.1743 19.075 12.516 18.7153 12.7563C18.3556 12.9967 17.9326 13.125 17.5 13.125C16.9198 13.125 16.3634 12.8945 15.9532 12.4843C15.543 12.0741 15.3125 11.5177 15.3125 10.9375ZM8.75 10.9375C8.75 8.61686 9.67187 6.39126 11.3128 4.75032C12.9538 3.10937 15.1794 2.1875 17.5 2.1875C19.8206 2.1875 22.0462 3.10937 23.6872 4.75032C25.3281 6.39126 26.25 8.61686 26.25 10.9375C26.25 19.1338 18.3777 23.7262 18.0469 23.9189C17.8816 24.0134 17.6945 24.0631 17.5041 24.0631C17.3137 24.0631 17.1266 24.0134 16.9613 23.9189C16.6223 23.7262 8.75 19.1406 8.75 10.9375ZM10.9375 10.9375C10.9375 16.707 15.8375 20.5365 17.5 21.6699C19.1611 20.5379 24.0625 16.707 24.0625 10.9375C24.0625 9.19702 23.3711 7.52782 22.1404 6.29711C20.9097 5.0664 19.2405 4.375 17.5 4.375C15.7595 4.375 14.0903 5.0664 12.8596 6.29711C11.6289 7.52782 10.9375 9.19702 10.9375 10.9375ZM27.7225 20.1838C27.4533 20.0949 27.1601 20.1139 26.9046 20.237C26.6492 20.36 26.4516 20.5774 26.3534 20.8434C26.2551 21.1093 26.264 21.403 26.3781 21.6626C26.4922 21.9221 26.7027 22.1272 26.965 22.2346C29.2223 23.0699 30.625 24.1883 30.625 25.1562C30.625 26.9828 25.632 29.5312 17.5 29.5312C9.36797 29.5312 4.375 26.9828 4.375 25.1562C4.375 24.1883 5.77773 23.0699 8.03496 22.2359C8.29734 22.1285 8.50777 21.9235 8.62188 21.6639C8.73599 21.4044 8.74487 21.1107 8.64665 20.8448C8.54842 20.5788 8.35077 20.3614 8.09536 20.2383C7.83995 20.1153 7.54674 20.0962 7.27754 20.1852C3.99492 21.3951 2.1875 23.1615 2.1875 25.1562C2.1875 29.4191 10.0775 31.7188 17.5 31.7188C24.9225 31.7188 32.8125 29.4191 32.8125 25.1562C32.8125 23.1615 31.0051 21.3951 27.7225 20.1838Z" fill="#A42429"/>
</svg>
