<svg width="35" height="35" viewBox="0 0 35 35" fill="none" xmlns="http://www.w3.org/2000/svg">
<path d="M32.8125 14.2188H31.3359L27.5379 5.67383C27.366 5.28722 27.0857 4.95876 26.7309 4.72823C26.3762 4.4977 25.9622 4.37501 25.5391 4.375H9.46094C9.03785 4.37501 8.62384 4.4977 8.26907 4.72823C7.9143 4.95876 7.63399 5.28722 7.46211 5.67383L3.66406 14.2188H2.1875C1.89742 14.2188 1.61922 14.334 1.4141 14.5391C1.20898 14.7442 1.09375 15.0224 1.09375 15.3125C1.09375 15.6026 1.20898 15.8808 1.4141 16.0859C1.61922 16.291 1.89742 16.4062 2.1875 16.4062H3.28125V27.3438C3.28125 27.9239 3.51172 28.4803 3.92195 28.8905C4.33219 29.3008 4.88859 29.5312 5.46875 29.5312H8.75C9.33016 29.5312 9.88656 29.3008 10.2968 28.8905C10.707 28.4803 10.9375 27.9239 10.9375 27.3438V25.1562H24.0625V27.3438C24.0625 27.9239 24.293 28.4803 24.7032 28.8905C25.1134 29.3008 25.6698 29.5312 26.25 29.5312H29.5312C30.1114 29.5312 30.6678 29.3008 31.078 28.8905C31.4883 28.4803 31.7188 27.9239 31.7188 27.3438V16.4062H32.8125C33.1026 16.4062 33.3808 16.291 33.5859 16.0859C33.791 15.8808 33.9062 15.6026 33.9062 15.3125C33.9062 15.0224 33.791 14.7442 33.5859 14.5391C33.3808 14.334 33.1026 14.2188 32.8125 14.2188ZM9.46094 6.5625H25.5391L28.942 14.2188H6.05801L9.46094 6.5625ZM29.5312 27.3438H26.25V24.0625C26.25 23.7724 26.1348 23.4942 25.9296 23.2891C25.7245 23.084 25.4463 22.9688 25.1562 22.9688H9.84375C9.55367 22.9688 9.27547 23.084 9.07035 23.2891C8.86523 23.4942 8.75 23.7724 8.75 24.0625V27.3438H5.46875V16.4062H29.5312V27.3438Z" fill="#A42429"/>
</svg>
