<svg width="146" height="53" viewBox="0 0 146 53" fill="none" xmlns="http://www.w3.org/2000/svg">
<path d="M30.9024 44.2256C30.0754 44.2256 29.3782 44.5717 28.9263 45.1649V44.3936H28.2775V50.1647H28.9263V47.3136C28.9263 45.8314 29.6962 44.8805 30.8896 44.8805C30.9936 44.8805 31.1533 44.8848 31.3144 44.9049L31.5654 44.9495V44.2744L31.2916 44.2514C31.1961 44.2442 31.0592 44.2241 30.9024 44.2241V44.2256Z" fill="#444444"/>
<path d="M38.8711 44.2256C37.0261 44.2256 35.7372 45.4838 35.7372 47.2792C35.7372 49.0746 37.0275 50.3328 38.8711 50.3328C41.0069 50.3328 41.6414 48.9582 41.8282 48.1352L41.8895 47.8709H41.2265L41.1837 48.0332C40.8857 49.1421 40.13 49.6778 38.8711 49.6778C37.2642 49.6778 36.4857 48.6207 36.3916 47.5004H41.9137V47.2777C41.9137 45.4838 40.6633 44.2241 38.8711 44.2241V44.2256ZM36.413 46.8497C36.5642 45.8586 37.2785 44.8805 38.8711 44.8805C40.3068 44.8805 41.0725 45.8328 41.235 46.8497H36.413Z" fill="#444444"/>
<path d="M49.7412 46.9632L48.1444 46.7664C47.2675 46.6486 47.0864 46.3283 47.0864 45.8759C47.0864 45.4235 47.2732 44.882 48.9072 44.882C50.2673 44.882 50.715 45.198 50.7564 46.1876L50.7635 46.3959H51.4151L51.408 46.1646C51.3367 44.4525 50.1333 44.2256 48.967 44.2256C47.2889 44.2256 46.4377 44.7786 46.4377 45.8759C46.4377 46.7765 46.9795 47.2892 48.0517 47.4171L49.6457 47.6153C50.7963 47.7589 50.9874 48.0218 50.9874 48.5891C50.9874 48.8606 50.9874 49.6778 49.0383 49.6778C47.0893 49.6778 46.9838 49.0846 46.8997 48.2544L46.8754 48.0548H46.2324L46.2552 48.3047C46.3636 49.3317 46.6673 50.3314 49.0383 50.3314C51.1813 50.3314 51.6275 49.3891 51.6275 48.6035C51.6275 47.4343 50.8747 47.1025 49.7398 46.9618L49.7412 46.9632Z" fill="#444444"/>
<path d="M57.0426 42.2937H56.3925V43.8708H57.0426V42.2937Z" fill="#444444"/>
<path d="M57.0426 44.3936H56.3925V50.1647H57.0426V44.3936Z" fill="#444444"/>
<path d="M67.2427 45.2324C66.7337 44.576 65.9381 44.227 64.9329 44.227C63.1165 44.227 61.9516 45.4292 61.9516 47.2806C61.9516 49.132 63.1165 50.3342 64.9329 50.3342C65.9267 50.3342 66.7294 49.9737 67.2427 49.3187V50.1661H67.8943V42.2937H67.2427V45.2324ZM64.9329 49.6792C62.7643 49.6792 62.5989 47.8379 62.5989 47.2792C62.5989 46.7204 62.7643 44.8805 64.9329 44.8805C67.1016 44.8805 67.2427 46.719 67.2427 47.2792C67.2427 47.8393 67.0787 49.6792 64.9329 49.6792Z" fill="#444444"/>
<path d="M75.9271 44.2256C74.0836 44.2256 72.7975 45.4838 72.7975 47.2792C72.7975 49.0746 74.0836 50.3328 75.9271 50.3328C78.1599 50.3328 78.7388 48.8017 78.8871 48.1352L78.9398 47.8709H78.2868L78.244 48.0332C77.9432 49.1421 77.1904 49.6778 75.9286 49.6778C74.3189 49.6778 73.5461 48.6207 73.4548 47.5004H78.9783V47.2777C78.9783 45.4838 77.7193 44.2241 75.9286 44.2241L75.9271 44.2256ZM73.4677 46.8497C73.6217 45.8586 74.3417 44.8805 75.9271 44.8805C77.3658 44.8805 78.1328 45.8328 78.2996 46.8497H73.4677Z" fill="#444444"/>
<path d="M86.6005 44.2256C85.6338 44.2256 84.8996 44.5085 84.4162 45.0715V44.3936H83.7632V50.1647H84.4162V46.9517C84.4162 46.0052 84.7955 44.8805 86.6005 44.8805C88.4056 44.8805 88.5453 45.7437 88.5453 46.5955V50.1647H89.194V46.5955C89.194 45.0184 88.3257 44.2241 86.6019 44.2241L86.6005 44.2256Z" fill="#444444"/>
<path d="M99.8446 48.072C99.4967 49.4006 98.3632 49.6793 97.4664 49.6793C95.7526 49.6793 94.9841 48.4728 94.9841 47.2792C94.9841 46.0856 95.7526 44.8805 97.4664 44.8805C98.8066 44.8805 99.5751 45.3531 99.7947 46.3355L99.8446 46.5007H100.483L100.436 46.2422C100.211 44.9811 99.1032 44.2256 97.4678 44.2256C95.6343 44.2256 94.3468 45.4838 94.3468 47.2792C94.3468 49.0746 95.6329 50.3328 97.4678 50.3328C99.0661 50.3328 100.137 49.5672 100.482 48.1855L100.55 47.9097H99.8902L99.846 48.072H99.8446Z" fill="#444444"/>
<path d="M106.276 42.2937H105.625V43.8708H106.276V42.2937Z" fill="#444444"/>
<path d="M106.276 44.3936H105.625V50.1647H106.276V44.3936Z" fill="#444444"/>
<path d="M116.722 49.517C116.64 49.517 116.619 49.5026 116.619 49.5026C116.609 49.494 116.59 49.4552 116.59 49.2886V45.8328C116.59 44.3908 115.098 44.2256 113.978 44.2256C112.859 44.2256 111.512 44.4511 111.421 46.2192L111.413 46.4562H112.051L112.071 46.2494C112.133 45.3387 112.444 44.8805 113.977 44.8805C115.711 44.8805 115.94 45.3646 115.94 45.8429V46.1359C115.94 46.5912 115.94 46.6731 114.865 46.7176L113.121 46.775C111.888 46.821 111.184 47.4501 111.184 48.4943C111.184 49.6434 112.049 50.3328 113.495 50.3328C114.757 50.3328 115.498 49.9321 115.94 49.4638C115.964 49.9177 116.233 50.1647 116.72 50.1647C116.893 50.1647 117.145 50.136 117.293 50.08L117.43 50.0225V49.3705L117.152 49.448C117.005 49.4882 116.834 49.517 116.722 49.517ZM113.511 49.6793C113.006 49.6793 111.828 49.5615 111.828 48.5101C111.828 47.8164 112.267 47.463 113.163 47.4357L114.77 47.3668C115.313 47.3481 115.688 47.2964 115.943 47.2074V47.8178C115.943 48.9626 115.011 49.6807 113.511 49.6807V49.6793Z" fill="#444444"/>
<path d="M122.505 42.2937H121.857V50.1661H122.505V42.2937Z" fill="#444444"/>
<path d="M67.237 27.0042C67.237 23.9147 66.0165 22.0575 63.5214 21.358C66.3801 20.2636 67.7089 17.5963 67.7089 15.1603C67.7089 9.96663 65.2922 7.54932 60.0796 7.54932H45.2928V34.6914H46.9025V22.3333H58.5098C64.9244 22.3333 65.6259 24.0511 65.6259 27.7037C65.6259 29.5939 65.7542 33.4403 66.256 34.4429L66.3801 34.6914H68.0882L67.7759 34.0522C67.3938 33.2536 67.237 29.0624 67.237 27.0042ZM46.9025 9.17235H60.0068C63.6611 9.17235 66.0935 10.1864 66.0935 15.1603C66.0935 17.7227 64.2086 20.7117 58.8719 20.7117H46.9025V9.17235Z" fill="#444444"/>
<path d="M92.1012 24.7219C92.1012 30.74 88.7663 33.6543 81.9154 33.6543C75.0645 33.6543 71.7325 30.74 71.7325 24.7219V7.54932H70.1171V24.6486C70.1171 31.6995 74.0879 35.2831 81.9154 35.2831C89.7429 35.2831 93.7066 31.6995 93.7066 24.6486V7.54932H92.1012V24.7233V24.7219Z" fill="#444444"/>
<path d="M114.785 20.4388C117.007 19.4592 118.713 17.0663 118.713 14.4982C118.713 10.2137 115.865 7.54932 111.268 7.54932H96.6694V34.6914H110.323C117.109 34.6914 119.529 30.7716 119.529 27.1134C119.529 23.6863 117.79 21.3035 114.785 20.4388ZM110.321 33.0654H98.2763V21.3839H110.321C115.356 21.3839 117.908 23.31 117.908 27.1134C117.908 29.9917 115.915 33.0654 110.321 33.0654ZM110.622 19.7522H98.2763V9.17235H111.121C114.984 9.17235 117.108 11.0654 117.108 14.4982C117.108 17.0448 114.834 19.7522 110.622 19.7522Z" fill="#444444"/>
<path d="M132.695 7.54932H131.17L118.799 34.6914H120.718L124.623 26.0117H139.243L143.151 34.6914H145.069L132.693 7.54932H132.695ZM125.352 24.3858L131.936 9.79858L138.52 24.3858H125.352Z" fill="#444444"/>
<path d="M39.5882 15.5754V2.66724L33.1494 9.11198C35.3323 11.3024 37.4881 13.464 39.5882 15.5754Z" fill="#DAA900"/>
<path d="M0.956694 2.66724H0.93103V15.5998C3.04546 13.4856 5.20695 11.3124 7.40123 9.11198L0.956694 2.66724Z" fill="#B12028"/>
<path d="M26.702 15.5654L37.5807 26.4684C38.2622 27.1392 38.9295 27.8128 39.5882 28.4707V15.5769L33.1437 9.11633L26.7006 15.5668L26.702 15.5654Z" fill="#EE7623"/>
<path d="M7.3998 9.11487L0.93103 15.5998V28.4951C2.36822 27.0559 3.84248 25.5836 5.3538 24.0655L13.8472 15.5654L7.3998 9.11487Z" fill="#FF671D"/>
<path d="M20.2718 9.12634C22.4005 6.99054 24.5491 4.84182 26.7163 2.67011L26.712 2.66724H13.8372L13.8329 2.67011C15.9973 4.84325 18.1431 6.99198 20.2703 9.12634H20.2718Z" fill="#FF671D"/>
<path d="M20.2718 21.9856L39.5897 41.3083V28.4749L37.5822 26.4669C34.1389 23.0212 30.4846 19.3571 26.7006 15.5638L20.2718 21.9856Z" fill="#B12028"/>
<path d="M13.8344 2.67011L13.8244 2.66724H0.956726L7.40126 9.11198C9.51997 6.99054 11.6643 4.84325 13.8358 2.67011H13.8344Z" fill="#E1251B"/>
<path d="M5.3538 24.064L0.93103 28.4935V41.3284L20.2718 21.9856L13.8486 15.5638C10.9272 18.4882 8.0799 21.3378 5.35523 24.064H5.3538Z" fill="#DAA900"/>
<path d="M26.7163 2.67011C28.8806 4.84325 31.0293 6.99198 33.1508 9.11198L39.5897 2.66724H26.7206L26.7163 2.67011Z" fill="#F2CD00"/>
<path d="M13.8343 2.67017L7.39978 9.11491L13.8472 15.5654L17.0138 12.384C18.0946 11.3039 19.1796 10.2209 20.2703 9.12784L13.8329 2.6716L13.8343 2.67017Z" fill="#FE3B1F"/>
<path d="M20.2718 9.12637C21.555 10.409 22.831 11.683 24.09 12.9484L26.702 15.5639L33.1451 9.11344L26.7177 2.6687L20.2732 9.12493L20.2718 9.12637Z" fill="#FF9015"/>
<path d="M24.09 12.9498L20.2718 9.12781L17.0153 12.3839C15.9545 13.4497 14.8966 14.5111 13.8486 15.5654L20.2718 21.9871L26.7006 15.5654C25.8323 14.6964 24.9654 13.8246 24.0914 12.9498H24.09Z" fill="#E1251B"/>
</svg>
