<svg width="22" height="22" viewBox="0 0 22 22" fill="none" xmlns="http://www.w3.org/2000/svg">
<path fill-rule="evenodd" clip-rule="evenodd" d="M11.4357 21.8379C5.68573 21.8379 0.93573 17.0879 0.93573 11.3379C0.93573 5.58789 5.67767 0.837891 11.4277 0.837891C17.1777 0.837891 21.9357 5.58789 21.9357 11.3379C21.9357 17.0879 17.1857 21.8379 11.4357 21.8379ZM10.1454 16.612C10.4438 16.612 10.7019 16.4749 10.8954 16.1765L16.3148 7.6846C16.4358 7.50718 16.5406 7.28944 16.5406 7.09589C16.5406 6.66847 16.1616 6.40234 15.7664 6.40234C15.5325 6.40234 15.2987 6.53944 15.1212 6.81363L10.1051 14.7894L7.43577 11.4427C7.22609 11.1765 7.00835 11.0798 6.75028 11.0798C6.35512 11.0798 6.02448 11.3943 6.02448 11.8217C6.02448 12.0233 6.10512 12.2411 6.24222 12.4104L9.35512 16.1846C9.60512 16.4911 9.84706 16.612 10.1454 16.612Z" fill="#231C17"/>
</svg>
