<svg width="160" height="160" viewBox="0 0 160 160" fill="none" xmlns="http://www.w3.org/2000/svg">
<path d="M108.538 61.4625C109.002 61.9269 109.371 62.4783 109.623 63.0853C109.874 63.6923 110.004 64.3429 110.004 65C110.004 65.6571 109.874 66.3077 109.623 66.9147C109.371 67.5217 109.002 68.0731 108.538 68.5375L73.5375 103.538C73.0732 104.002 72.5217 104.371 71.9147 104.623C71.3077 104.874 70.6571 105.004 70 105.004C69.343 105.004 68.6923 104.874 68.0853 104.623C67.4783 104.371 66.9269 104.002 66.4625 103.538L51.4625 88.5375C50.5243 87.5993 49.9972 86.3268 49.9972 85C49.9972 83.6732 50.5243 82.4007 51.4625 81.4625C52.4007 80.5243 53.6732 79.9972 55 79.9972C56.3268 79.9972 57.5993 80.5243 58.5375 81.4625L70 92.9313L101.463 61.4625C101.927 60.9976 102.478 60.6288 103.085 60.3772C103.692 60.1256 104.343 59.9961 105 59.9961C105.657 59.9961 106.308 60.1256 106.915 60.3772C107.522 60.6288 108.073 60.9976 108.538 61.4625ZM145 80C145 92.8558 141.188 105.423 134.046 116.112C126.903 126.801 116.752 135.132 104.874 140.052C92.9973 144.972 79.9279 146.259 67.3192 143.751C54.7104 141.243 43.1285 135.052 34.0381 125.962C24.9477 116.872 18.757 105.29 16.249 92.6809C13.7409 80.0721 15.0282 67.0028 19.9479 55.1256C24.8676 43.2484 33.1988 33.0968 43.888 25.9545C54.5772 18.8122 67.1442 15 80 15C97.2335 15.0182 113.756 21.8722 125.942 34.0582C138.128 46.2441 144.982 62.7665 145 80ZM135 80C135 69.122 131.774 58.4883 125.731 49.4436C119.687 40.3989 111.098 33.3494 101.048 29.1866C90.9977 25.0238 79.939 23.9346 69.2701 26.0568C58.6011 28.179 48.801 33.4172 41.1092 41.1091C33.4173 48.801 28.179 58.6011 26.0568 69.27C23.9347 79.939 25.0238 90.9977 29.1867 101.048C33.3495 111.098 40.399 119.687 49.4437 125.731C58.4884 131.774 69.1221 135 80 135C94.5819 134.983 108.562 129.184 118.873 118.873C129.184 108.562 134.983 94.5818 135 80Z" fill="#18AC42"/>
</svg>
