<svg width="29" height="34" viewBox="0 0 29 34" fill="none" xmlns="http://www.w3.org/2000/svg">
<path d="M28.2921 33.314V30.208H26.7768L26.7519 29.6256H28.2888V27.8688H26.7768V27.3058H28.2888V25.085H26.7768V24.5027H28.2705V22.7672H26.9577V22.1712H28.2855V17.0949L20.3535 25.9334L20.0465 25.4636C21.1369 24.2464 22.2539 22.9963 23.366 21.75C24.239 20.7794 25.1237 19.8204 25.9801 18.8381C26.1187 18.6412 26.195 18.3943 26.1959 18.1393C26.2274 16.8697 26.2307 15.5982 26.2423 14.3286L26.2971 8.28356C26.2971 8.14767 26.2871 8.00984 26.2805 7.84484C26.1643 7.83319 26.0614 7.81378 25.9602 7.81378C24.7983 7.81378 23.6531 7.79825 22.5013 7.81378C22.2993 7.8277 22.1084 7.92625 21.9635 8.09138C19.4158 11.2148 16.878 14.3577 14.3286 17.4831C14.095 17.7509 13.8107 17.9504 13.4988 18.0655C12.3369 18.512 11.1569 18.9138 9.89876 19.3603C10.2091 17.7219 10.5095 16.1378 10.8066 14.5654H11.2149L10.9311 14.183L16.093 7.80602H3.85395V7.22364H4.32034C8.23071 7.22364 12.1394 7.22364 16.0498 7.23529C16.2172 7.24444 16.3842 7.2088 16.5381 7.13109C16.692 7.05339 16.8287 6.93566 16.9378 6.78686C18.5975 4.7162 20.2645 2.65848 21.9386 0.613703C22.6025 -0.203561 23.0589 -0.195796 23.7643 0.584584L25.117 2.09099C25.7378 2.77625 25.7676 3.37415 25.19 4.0963C24.3751 5.11351 23.5469 6.11713 22.6656 7.20229H26.7519V17.9781C27.4274 17.2327 28.0797 16.5086 28.79 15.7282V33.8963H13.288L16.3436 30.3419L16.2871 30.2274C16.1494 30.2274 16.01 30.208 15.8722 30.208C11.1541 30.208 6.43597 30.208 1.71785 30.208C1.59477 30.218 1.4715 30.1918 1.35929 30.1318C1.24709 30.0718 1.14953 29.9798 1.07552 29.8644C0.395026 28.8841 -0.00165456 27.8028 5.18775e-06 26.506C0.0132832 19.3448 -0.00829343 12.1835 0.0199223 5.02033C0.0199223 3.36833 0.572619 2.57436 1.74108 2.15311C2.35519 1.93181 2.98258 1.75321 3.6581 1.53968V24.7589C3.6249 24.7589 3.59337 24.7706 3.57677 24.7589C2.86971 24.1765 2.15436 24.1086 1.45727 24.7589C0.692122 25.481 0.295441 26.4128 0.604154 27.5446C0.783408 28.2085 1.12864 28.8161 1.43403 29.4179C1.50208 29.5518 1.74772 29.612 1.91204 29.612C4.4166 29.6256 6.92117 29.6217 9.42739 29.6217C11.7859 29.6217 14.1444 29.6217 16.5029 29.6081C16.7314 29.5924 16.9485 29.4863 17.1187 29.3072C17.688 28.6841 18.2241 28.0221 18.79 27.3544L19.1618 27.7542L14.3867 33.3043L28.2921 33.314ZM3.16183 2.26958C2.70872 2.42683 2.29212 2.56271 1.8805 2.71801C0.922827 3.07908 0.522827 3.73134 0.519507 5.04751C0.50291 11.5254 0.511208 18.0053 0.519507 24.4852C0.519507 24.6308 0.531126 24.7783 0.541084 25.021C1.25312 23.9941 2.07967 23.5029 3.16847 23.8174L3.16183 2.26958ZM19.7311 4.21083C19.6481 4.29819 19.5851 4.35448 19.532 4.42048C17.2448 7.24564 14.9571 10.0708 12.6689 12.896C11.9685 13.7676 11.1253 14.5091 11.0257 15.8894C10.9826 16.4911 11.0257 16.86 11.4075 17.2871C11.844 17.7879 12.2241 17.9937 12.8166 17.6753C13.2432 17.454 13.7112 17.3996 14.0681 16.9532C16.161 14.3402 18.2755 11.7545 20.3751 9.15906L22.1842 6.92275L19.7311 4.21083ZM23.8423 4.90774C24.2108 4.44572 24.5593 4.02641 24.893 3.58963C25.1834 3.20138 25.1834 2.99173 24.8697 2.63066C24.332 2.0114 23.7793 1.40961 23.2282 0.807827C22.971 0.524405 22.722 0.545759 22.4598 0.829181C22.0813 1.23878 21.683 1.62703 21.2681 2.05216L23.8423 4.90774ZM22.8863 6.0919L23.1552 5.74247L20.6921 3.02473L20.4183 3.37415L22.8863 6.0919ZM11.4589 18.1218L10.795 17.3899L10.6008 18.4266L11.4589 18.1218Z" fill="black"/>
</svg>
