<svg width="20" height="21" viewBox="0 0 20 21" fill="none" xmlns="http://www.w3.org/2000/svg">
<path d="M15.5012 12.2466L12.5012 10.7466C12.4126 10.7025 12.314 10.6826 12.2152 10.6888C12.1164 10.6951 12.0211 10.7273 11.9387 10.7822L10.4687 11.7619C9.72455 11.3809 9.11909 10.7754 8.73812 10.0312L9.71874 8.56219C9.77364 8.47985 9.80584 8.38448 9.81209 8.28572C9.81835 8.18696 9.79844 8.08829 9.75437 7.99969L8.25437 4.99969C8.20773 4.90583 8.1358 4.82687 8.04668 4.77171C7.95756 4.71655 7.8548 4.68738 7.74999 4.6875C6.80516 4.6875 5.89902 5.06283 5.23093 5.73093C4.56283 6.39903 4.18749 7.30517 4.18749 8.25C4.18998 10.3875 5.04021 12.4368 6.55169 13.9483C8.06316 15.4598 10.1124 16.31 12.25 16.3125C13.1948 16.3125 14.101 15.9372 14.7691 15.2691C15.4372 14.601 15.8125 13.6948 15.8125 12.75C15.8125 12.6454 15.7834 12.543 15.7284 12.454C15.6735 12.3651 15.5948 12.2933 15.5012 12.2466ZM12.25 15.1875C10.4107 15.1853 8.64746 14.4536 7.34691 13.1531C6.04636 11.8525 5.31473 10.0893 5.31249 8.25C5.31255 7.66172 5.52536 7.0933 5.91166 6.64962C6.29796 6.20594 6.83169 5.91694 7.41437 5.83594L8.60124 8.20969L7.62718 9.67031C7.576 9.74735 7.54461 9.83582 7.53578 9.92788C7.52695 10.0199 7.54095 10.1128 7.57656 10.1981C8.0938 11.4279 9.0721 12.4062 10.3019 12.9234C10.3872 12.959 10.4801 12.973 10.5721 12.9642C10.6642 12.9554 10.7526 12.924 10.8297 12.8728L12.2903 11.8988L14.6641 13.0856C14.5831 13.6683 14.2941 14.202 13.8504 14.5883C13.4067 14.9746 12.8383 15.1874 12.25 15.1875ZM9.99999 0.9375C8.34229 0.937152 6.71298 1.36774 5.27189 2.18703C3.8308 3.00632 2.62745 4.18616 1.77989 5.61081C0.932323 7.03545 0.469667 8.65595 0.437308 10.3133C0.404949 11.9707 0.803998 13.608 1.59531 15.0647L0.505931 18.3337C0.428809 18.565 0.417617 18.8132 0.473609 19.0504C0.529601 19.2877 0.650565 19.5047 0.822942 19.6771C0.995319 19.8494 1.2123 19.9704 1.44956 20.0264C1.68682 20.0824 1.93499 20.0712 2.16624 19.9941L5.43531 18.9047C6.71498 19.5991 8.13633 19.9922 9.59098 20.0539C11.0456 20.1156 12.4952 19.8444 13.8291 19.2608C15.1629 18.6772 16.346 17.7968 17.2879 16.6866C18.2299 15.5764 18.9059 14.2657 19.2644 12.8546C19.6229 11.4435 19.6544 9.96913 19.3566 8.54396C19.0588 7.11879 18.4395 5.78044 17.5459 4.63097C16.6523 3.48149 15.508 2.55125 14.2003 1.91117C12.8926 1.27108 11.456 0.938063 9.99999 0.9375ZM9.99999 18.9375C8.51681 18.9379 7.05973 18.5472 5.77562 17.805C5.69001 17.7558 5.59311 17.7296 5.49437 17.7291C5.43384 17.7294 5.37374 17.7392 5.31624 17.7581L1.81093 18.9263C1.77789 18.9373 1.74244 18.9389 1.70855 18.9309C1.67465 18.9229 1.64366 18.9056 1.61903 18.881C1.59441 18.8563 1.57713 18.8253 1.56913 18.7914C1.56113 18.7576 1.56273 18.7221 1.57374 18.6891L2.74187 15.1875C2.76714 15.1118 2.77603 15.0317 2.76795 14.9523C2.75987 14.8729 2.735 14.7962 2.69499 14.7272C1.7643 13.1195 1.3902 11.2495 1.63074 9.40749C1.87127 7.56544 2.713 5.85428 4.02533 4.53945C5.33766 3.22463 7.04723 2.37965 8.88882 2.13562C10.7304 1.89159 12.601 2.26213 14.2105 3.18978C15.82 4.11742 17.0784 5.55031 17.7904 7.26612C18.5024 8.98194 18.6282 10.8848 18.1484 12.6794C17.6685 14.4741 16.6098 16.0602 15.1365 17.1917C13.6632 18.3232 11.8577 18.9369 9.99999 18.9375Z" fill="#343330"/>
</svg>
